<svg xmlns="http://www.w3.org/2000/svg" xmlns:xlink="http://www.w3.org/1999/xlink" width="57.995" height="50.516" viewBox="0 0 57.995 50.516">
  <defs>
    <filter id="Subtraction_1" x="0" y="2.716" width="57.995" height="47.8" filterUnits="userSpaceOnUse">
      <feOffset dy="1" input="SourceAlpha"/>
      <feGaussianBlur stdDeviation="1" result="blur"/>
      <feFlood flood-opacity="0.161"/>
      <feComposite operator="in" in2="blur"/>
      <feComposite in="SourceGraphic"/>
    </filter>
    <filter id="Path_9" x="16.445" y="25.448" width="26.672" height="14.456" filterUnits="userSpaceOnUse">
      <feOffset dy="1" input="SourceAlpha"/>
      <feGaussianBlur stdDeviation="1" result="blur-2"/>
      <feFlood flood-opacity="0.161"/>
      <feComposite operator="in" in2="blur-2"/>
      <feComposite in="SourceGraphic"/>
    </filter>
    <filter id="Path_10" x="19.6" y="19.492" width="19.105" height="14.415" filterUnits="userSpaceOnUse">
      <feOffset dy="1" input="SourceAlpha"/>
      <feGaussianBlur stdDeviation="1" result="blur-3"/>
      <feFlood flood-opacity="0.161"/>
      <feComposite operator="in" in2="blur-3"/>
      <feComposite in="SourceGraphic"/>
    </filter>
    <filter id="Path_11" x="23.677" y="14.183" width="10.006" height="16.037" filterUnits="userSpaceOnUse">
      <feOffset dy="1" input="SourceAlpha"/>
      <feGaussianBlur stdDeviation="1" result="blur-4"/>
      <feFlood flood-opacity="0.161"/>
      <feComposite operator="in" in2="blur-4"/>
      <feComposite in="SourceGraphic"/>
    </filter>
    <filter id="Intersection_9" x="28.722" y="6.747" width="23.759" height="7.178" filterUnits="userSpaceOnUse">
      <feOffset dy="1" input="SourceAlpha"/>
      <feGaussianBlur stdDeviation="0.5" result="blur-5"/>
      <feFlood flood-opacity="0.161"/>
      <feComposite operator="in" in2="blur-5"/>
      <feComposite in="SourceGraphic"/>
    </filter>
    <filter id="Intersection_8" x="2.983" y="9.041" width="22.847" height="7.314" filterUnits="userSpaceOnUse">
      <feOffset dy="1" input="SourceAlpha"/>
      <feGaussianBlur stdDeviation="0.5" result="blur-6"/>
      <feFlood flood-opacity="0.161"/>
      <feComposite operator="in" in2="blur-6"/>
      <feComposite in="SourceGraphic"/>
    </filter>
    <filter id="Path_14" x="15.68" y="0.61" width="14.534" height="18.943" filterUnits="userSpaceOnUse">
      <feOffset dy="1" input="SourceAlpha"/>
      <feGaussianBlur stdDeviation="0.5" result="blur-7"/>
      <feFlood flood-opacity="0.161"/>
      <feComposite operator="in" in2="blur-7"/>
      <feComposite in="SourceGraphic"/>
    </filter>
    <filter id="Path_15" x="24.409" y="0" width="14.534" height="18.943" filterUnits="userSpaceOnUse">
      <feOffset dy="1" input="SourceAlpha"/>
      <feGaussianBlur stdDeviation="0.5" result="blur-8"/>
      <feFlood flood-opacity="0.161"/>
      <feComposite operator="in" in2="blur-8"/>
      <feComposite in="SourceGraphic"/>
    </filter>
  </defs>
  <g id="Group_59" data-name="Group 59" transform="translate(-45.19 -339.066)">
    <g transform="matrix(1, 0, 0, 1, 45.19, 339.07)" filter="url(#Subtraction_1)">
      <path id="Subtraction_1-2" data-name="Subtraction 1" d="M14.328,41.949A13,13,0,0,1,1.391,30.082L.2,16.453A13,13,0,0,1,12.017,2.369L36.817.2c.381-.033.767-.05,1.147-.05a12.907,12.907,0,0,1,4.31.738l-14.9,1.3.225,2.579L46.242,3.138A12.906,12.906,0,0,1,50.9,12.017l1.192,13.629A13,13,0,0,1,40.275,39.729l-24.8,2.17C15.095,41.932,14.708,41.949,14.328,41.949Z" transform="translate(2.85 4.57)" fill="#383838"/>
    </g>
    <g id="Group_54" data-name="Group 54" transform="translate(47.108 337.566)">
      <rect id="Rectangle_35" data-name="Rectangle 35" width="50.895" height="39.681" rx="13" transform="matrix(-0.996, 0.087, -0.087, -0.996, 54.16, 44.663)" fill="#e475ff"/>
      <rect id="Rectangle_44" data-name="Rectangle 44" width="50.895" height="36.681" rx="13" transform="matrix(-0.996, 0.087, -0.087, -0.996, 54.16, 44.663)" fill="#962cff"/>
      <rect id="Rectangle_45" data-name="Rectangle 45" width="50.895" height="37.681" rx="13" transform="matrix(-0.996, 0.087, -0.087, -0.996, 53.985, 42.671)" fill="#ce48ff"/>
      <g id="Icon_feather-download" data-name="Icon feather-download" transform="matrix(0.995, -0.105, 0.105, 0.995, 17.741, 18.735)">
        <g transform="matrix(0.99, 0.1, -0.1, 0.99, -17.75, -19.2)" filter="url(#Path_9)">
          <path id="Path_9-2" data-name="Path 9" d="M17.115,0V3.259a1.781,1.781,0,0,1-1.9,1.629H1.9A1.781,1.781,0,0,1,0,3.259V0" transform="matrix(0.99, -0.1, 0.1, 0.99, 20.94, 29.39)" fill="none" stroke="#fff" stroke-width="3"/>
        </g>
        <g transform="matrix(0.99, 0.1, -0.1, 0.99, -17.75, -19.2)" filter="url(#Path_10)">
          <path id="Path_10-2" data-name="Path 10" d="M0,0,5.3,4.074,10.6,0" transform="matrix(0.99, -0.1, 0.1, 0.99, 23.63, 23.88)" fill="none" stroke="#fff" stroke-width="3"/>
        </g>
        <g transform="matrix(0.99, 0.1, -0.1, 0.99, -17.75, -19.2)" filter="url(#Path_11)">
          <path id="Path_11-2" data-name="Path 11" d="M0,9.777V0" transform="matrix(0.99, -0.1, 0.1, 0.99, 28.17, 16.34)" fill="none" stroke="#fff" stroke-width="3"/>
        </g>
        <path id="Path_12" data-name="Path 12" d="M0,0,5.3,4.074,10.6,0" transform="translate(3.259 7.022)" fill="none" stroke="#fff" stroke-width="3"/>
        <path id="Path_13" data-name="Path 13" d="M0,9.777V0" transform="translate(8.557 0)" fill="none" stroke="#fff" stroke-width="3"/>
      </g>
      <g id="Group_53" data-name="Group 53" transform="translate(2.97 2)">
        <g transform="matrix(1, 0, 0, 1, -4.89, -0.5)" filter="url(#Intersection_9)">
          <path id="Intersection_9-2" data-name="Intersection 9" d="M0,1.44,18.286-.16a13.065,13.065,0,0,1,2.473,2.382L.225,4.019Z" transform="translate(30.22 7.41)" fill="#48ffed"/>
        </g>
        <g transform="matrix(1, 0, 0, 1, -4.89, -0.5)" filter="url(#Intersection_8)">
          <path id="Intersection_8-2" data-name="Intersection 8" d="M1.544,1.546,19.217,0l.226,2.578L-.4,4.314A13.07,13.07,0,0,1,1.544,1.546Z" transform="translate(4.89 9.54)" fill="#48ffed"/>
        </g>
        <g transform="matrix(1, 0, 0, 1, -4.89, -0.5)" filter="url(#Path_14)">
          <path id="Path_14-2" data-name="Path 14" d="M4.141,9.368A4.324,4.324,0,0,1,2.671,9.1a3.967,3.967,0,0,1-1.33-.8A4.08,4.08,0,0,1,.373,6.946,4.635,4.635,0,0,1,0,5.01,5,5,0,0,1,.378,3.074,4.752,4.752,0,0,1,1.454,1.48,5.156,5.156,0,0,1,3.126.4,5.687,5.687,0,0,1,5.3,0,6.015,6.015,0,0,1,7.484.373a4.6,4.6,0,0,1,1.63,1.045,4.578,4.578,0,0,1,1.025,1.6A5.64,5.64,0,0,1,10.5,5.062a7.783,7.783,0,0,1-.119,1.4,7.97,7.97,0,0,1-.331,1.247,7.7,7.7,0,0,1-.512,1.139,11.5,11.5,0,0,1-.673,1.071l-3.25,4.617a1.571,1.571,0,0,1-.652.507,2.353,2.353,0,0,1-1,.207H.994L5.776,9.534q.145-.176.274-.336T6.3,8.871a4.04,4.04,0,0,1-1.014.373A5.189,5.189,0,0,1,4.141,9.368Zm3.292-4.6a2.7,2.7,0,0,0-.16-.968,1.929,1.929,0,0,0-.445-.7,1.869,1.869,0,0,0-.688-.424,2.587,2.587,0,0,0-.88-.145,2.078,2.078,0,0,0-.864.171,1.867,1.867,0,0,0-.642.471,2.078,2.078,0,0,0-.4.709,2.72,2.72,0,0,0-.14.885q0,2.257,2.091,2.257a2.013,2.013,0,0,0,1.579-.616A2.361,2.361,0,0,0,7.432,4.772Z" transform="matrix(1, -0.07, 0.07, 1, 17.18, 1.84)" fill="#48ffed"/>
        </g>
        <g transform="matrix(1, 0, 0, 1, -4.89, -0.5)" filter="url(#Path_15)">
          <path id="Path_15-2" data-name="Path 15" d="M4.141,5.88a4.324,4.324,0,0,0-1.47.264,3.967,3.967,0,0,0-1.33.8A4.079,4.079,0,0,0,.373,8.3,4.635,4.635,0,0,0,0,10.238a5,5,0,0,0,.378,1.936,4.752,4.752,0,0,0,1.077,1.594,5.156,5.156,0,0,0,1.672,1.082,5.687,5.687,0,0,0,2.174.4,6.015,6.015,0,0,0,2.184-.373,4.488,4.488,0,0,0,2.655-2.645,5.64,5.64,0,0,0,.357-2.044,7.783,7.783,0,0,0-.119-1.4,7.97,7.97,0,0,0-.331-1.247A7.694,7.694,0,0,0,9.534,6.4a11.5,11.5,0,0,0-.673-1.071L5.611.714A1.571,1.571,0,0,0,4.958.207a2.353,2.353,0,0,0-1-.207H.994L5.776,5.714q.145.176.274.336t.254.326A4.04,4.04,0,0,0,5.29,6,5.189,5.189,0,0,0,4.141,5.88Zm3.292,4.6a2.7,2.7,0,0,1-.16.968,1.929,1.929,0,0,1-.445.7,1.869,1.869,0,0,1-.688.424,2.586,2.586,0,0,1-.88.145,2.078,2.078,0,0,1-.864-.171,1.867,1.867,0,0,1-.642-.471,2.078,2.078,0,0,1-.4-.709,2.72,2.72,0,0,1-.14-.885q0-2.257,2.091-2.257a2.013,2.013,0,0,1,1.579.616A2.361,2.361,0,0,1,7.432,10.476Z" transform="matrix(-1, 0.07, -0.07, -1, 37.44, 15.71)" fill="#48ffed"/>
        </g>
      </g>
    </g>
    <path id="Path_44" data-name="Path 44" d="M3.544,0C5.556,0,7.286.368,7.286.943s-1.668.5-3.68.5S0,1.518,0,.943,1.532,0,3.544,0Z" transform="matrix(0.53, -0.848, 0.848, 0.53, 51.85, 358.906)" fill="#fff"/>
    <path id="Path_45" data-name="Path 45" d="M1.6,0C2.51,0,3.292.3,3.292.777s-.754.412-1.663.412S0,1.251,0,.777.692,0,1.6,0Z" transform="translate(51.229 362.964) rotate(-77)" fill="#fff"/>
  </g>
</svg>
