<svg xmlns="http://www.w3.org/2000/svg" xmlns:xlink="http://www.w3.org/1999/xlink" width="63.658" height="62.813" viewBox="0 0 63.658 62.813">
  <defs>
    <linearGradient id="linear-gradient" x1="0.575" y1="-0.018" x2="0.569" y2="1" gradientUnits="objectBoundingBox">
      <stop offset="0" stop-color="#75d9ff"/>
      <stop offset="1" stop-color="#2cc5ff"/>
    </linearGradient>
    <filter id="Ellipse_3" x="4.543" y="5.536" width="51" height="51" filterUnits="userSpaceOnUse">
      <feOffset dy="1" input="SourceAlpha"/>
      <feGaussianBlur stdDeviation="1.5" result="blur"/>
      <feFlood flood-opacity="0.161"/>
      <feComposite operator="in" in2="blur"/>
      <feComposite in="SourceGraphic"/>
    </filter>
    <linearGradient id="linear-gradient-2" x1="0.575" y1="1.018" x2="0.569" y2="0" xlink:href="#linear-gradient"/>
    <filter id="Path_27" x="0" y="1.047" width="61.348" height="61.348" filterUnits="userSpaceOnUse">
      <feOffset dy="1" input="SourceAlpha"/>
      <feGaussianBlur stdDeviation="1.5" result="blur-2"/>
      <feFlood flood-opacity="0.161"/>
      <feComposite operator="in" in2="blur-2"/>
      <feComposite in="SourceGraphic"/>
    </filter>
    <filter id="Path_28" x="0.846" y="0" width="62.813" height="62.813" filterUnits="userSpaceOnUse">
      <feOffset dy="1" input="SourceAlpha"/>
      <feGaussianBlur stdDeviation="1" result="blur-3"/>
      <feFlood flood-opacity="0.161"/>
      <feComposite operator="in" in2="blur-3"/>
      <feComposite in="SourceGraphic"/>
    </filter>
    <filter id="path" x="18.432" y="18.838" width="27.449" height="24.185" filterUnits="userSpaceOnUse">
      <feOffset dy="1" input="SourceAlpha"/>
      <feGaussianBlur stdDeviation="1" result="blur-4"/>
      <feFlood flood-opacity="0.161"/>
      <feComposite operator="in" in2="blur-4"/>
      <feComposite in="SourceGraphic"/>
    </filter>
  </defs>
  <g id="ic_close" transform="translate(-12.461 -15.813)">
    <g transform="matrix(1, 0, 0, 1, 12.46, 15.81)" filter="url(#Ellipse_3)">
      <circle id="Ellipse_3-2" data-name="Ellipse 3" cx="21" cy="21" r="21" transform="translate(9.04 9.04)" fill="url(#linear-gradient)"/>
    </g>
    <g transform="matrix(1, 0, 0, 1, 12.46, 15.81)" filter="url(#Path_27)">
      <path id="Path_27-2" data-name="Path 27" d="M22.594,45.188A22.594,22.594,0,1,0,0,22.594,22.594,22.594,0,0,0,22.594,45.188Z" transform="matrix(-0.98, 0.17, -0.17, -0.98, 56.85, 49.05)" fill="url(#linear-gradient-2)"/>
    </g>
    <g transform="matrix(1, 0, 0, 1, 12.46, 15.81)" filter="url(#Path_28)">
      <path id="Path_28-2" data-name="Path 28" d="M24.521,0A24.521,24.521,0,1,1,0,24.521,24.521,24.521,0,0,1,24.521,0Z" transform="matrix(0.98, -0.17, 0.17, 0.98, 3.85, 10.52)" fill="#2cc7ff"/>
    </g>
    <path id="Path_29" data-name="Path 29" d="M24.521,0C38.063,0,49.042,10.582,49.042,23.637S39.239,30.3,25.7,30.3,0,36.691,0,23.637,10.978,0,24.521,0Z" transform="matrix(0.985, -0.174, 0.174, 0.985, 16.306, 26.329)" fill="#75fbff"/>
    <path id="Path_30" data-name="Path 30" d="M24.521,0C38.063,0,49.042,9.791,49.042,21.868S39.4,41.006,27.483,43.659,0,33.945,0,21.868,10.978,0,24.521,0Z" transform="matrix(0.985, -0.174, 0.174, 0.985, 16.747, 28.828)" fill="#48e6ff"/>
    <path id="Path_31" data-name="Path 31" d="M3.806,0c2.161,0,4.02.4,4.02,1.013s-1.792.537-3.953.537S0,1.631,0,1.013,1.645,0,3.806,0Z" transform="translate(26.067 33.727) rotate(-54)" fill="#fff"/>
    <path id="Path_32" data-name="Path 32" d="M1.72,0C2.7,0,3.536.326,3.536.835s-.81.443-1.786.443S0,1.343,0,.835.743,0,1.72,0Z" transform="translate(25.271 39.014) rotate(-73)" fill="#fff"/>
    <g transform="matrix(1, 0, 0, 1, 12.46, 15.81)" filter="url(#path)">
      <path id="path-2" data-name="path" d="M58.176,877.005c2.606.368,2.606,2.762,0,3.13s-11.387-.7-12.1-.031,4.238,2.725,4.944,3.944-.8,2.649-3.03,1.435-7.251-5.587-7.323-7.044,4.5-6.547,6.734-7.761,3.436.91,2.439,2.2-5.059,3.782-4.479,4.235S55.57,876.637,58.176,877.005Z" transform="translate(-139.96 -832.64) rotate(-8)" fill="#fff"/>
    </g>
  </g>
</svg>
