<svg xmlns="http://www.w3.org/2000/svg" xmlns:xlink="http://www.w3.org/1999/xlink" width="46.432" height="46.432" viewBox="0 0 46.432 46.432">
  <defs>
    <filter id="path" x="14.056" y="12.463" width="21.152" height="23.052" filterUnits="userSpaceOnUse">
      <feOffset dy="1" input="SourceAlpha"/>
      <feGaussianBlur stdDeviation="1" result="blur"/>
      <feFlood flood-opacity="0.161"/>
      <feComposite operator="in" in2="blur"/>
      <feComposite in="SourceGraphic"/>
    </filter>
  </defs>
  <g id="Group_76" data-name="Group 76" transform="translate(-69.06 -399.849)">
    <path id="Path_21" data-name="Path 21" d="M23.216,0A23.216,23.216,0,1,1,0,23.216,23.216,23.216,0,0,1,23.216,0Z" transform="translate(69.06 399.849)" fill="#0d9bd1"/>
    <path id="Path_20" data-name="Path 20" d="M23.216,0C36.038,0,46.432,10.019,46.432,22.379s-9.281,6.308-22.1,6.308S0,34.738,0,22.379,10.394,0,23.216,0Z" transform="translate(69.06 399.849)" fill="#97e0fc"/>
    <path id="Path_19" data-name="Path 19" d="M23.216,0C36.038,0,46.432,9.27,46.432,20.7S36.685,37.753,25.4,40.265,0,32.139,0,20.7,10.394,0,23.216,0Z" transform="translate(69.06 403.198)" fill="#2cc5ff"/>
    <path id="Path_17" data-name="Path 17" d="M3.071,0C4.815,0,6.315.319,6.315.818s-1.446.434-3.19.434S0,1.316,0,.818,1.328,0,3.071,0Z" transform="matrix(0.719, -0.695, 0.695, 0.719, 76.707, 408.538)" fill="#fff"/>
    <path id="Path_18" data-name="Path 18" d="M1.388,0c.788,0,1.466.263,1.466.673s-.653.357-1.441.357S0,1.084,0,.673.6,0,1.388,0Z" transform="matrix(0.454, -0.891, 0.891, 0.454, 75.333, 411.821)" fill="#fff"/>
    <g transform="matrix(1, 0, 0, 1, 69.06, 399.85)" filter="url(#path)">
      <path id="path-2" data-name="path" d="M79.28,34.953c2.05-1.3,13.976,5.133,13.976,7.742S82.183,52.989,80.133,51.685,77.229,36.258,79.28,34.953Z" transform="translate(-61.05 -20.32)" fill="#fff"/>
    </g>
  </g>
</svg>
